<svg width="75" height="74" viewBox="0 0 75 74" fill="none" xmlns="http://www.w3.org/2000/svg">
<rect x="0.333496" width="74" height="74" rx="37" fill="url(#paint0_linear_11_86913)" fill-opacity="0.1"/>
<rect x="0.833496" y="0.5" width="73" height="73" rx="36.5" stroke="url(#paint1_linear_11_86913)" stroke-opacity="0.2"/>
<path d="M37.3335 30.625C35.5731 30.625 34.146 32.0521 34.146 33.8125C34.146 35.5729 35.5731 37 37.3335 37C39.0939 37 40.521 35.5729 40.521 33.8125C40.521 32.0521 39.0939 30.625 37.3335 30.625Z" fill="#CAFF33"/>
<path fill-rule="evenodd" clip-rule="evenodd" d="M22.4585 26.9062C22.4585 25.4392 23.6477 24.25 25.1147 24.25H49.5522C51.0193 24.25 52.2085 25.4392 52.2085 26.9062V40.7188C52.2085 42.1858 51.0193 43.375 49.5522 43.375H25.1147C23.6477 43.375 22.4585 42.1858 22.4585 40.7188V26.9062ZM32.021 33.8125C32.021 30.8785 34.3995 28.5 37.3335 28.5C40.2675 28.5 42.646 30.8785 42.646 33.8125C42.646 36.7465 40.2675 39.125 37.3335 39.125C34.3995 39.125 32.021 36.7465 32.021 33.8125ZM46.896 32.75C46.3092 32.75 45.8335 33.2257 45.8335 33.8125V33.8231C45.8335 34.4099 46.3092 34.8856 46.896 34.8856H46.9066C47.4934 34.8856 47.9691 34.4099 47.9691 33.8231V33.8125C47.9691 33.2257 47.4934 32.75 46.9066 32.75H46.896ZM26.7085 33.8125C26.7085 33.2257 27.1842 32.75 27.771 32.75H27.7816C28.3684 32.75 28.8441 33.2257 28.8441 33.8125V33.8231C28.8441 34.4099 28.3684 34.8856 27.7816 34.8856H27.771C27.1842 34.8856 26.7085 34.4099 26.7085 33.8231V33.8125Z" fill="#CAFF33"/>
<path d="M23.521 45.5C22.9342 45.5 22.4585 45.9757 22.4585 46.5625C22.4585 47.1493 22.9342 47.625 23.521 47.625C31.1711 47.625 38.5805 48.6481 45.6207 50.5644C47.3073 51.0235 49.021 49.7738 49.021 47.9864V46.5625C49.021 45.9757 48.5453 45.5 47.9585 45.5H23.521Z" fill="#CAFF33"/>
<defs>
<linearGradient id="paint0_linear_11_86913" x1="37.3335" y1="-49" x2="37.3335" y2="191" gradientUnits="userSpaceOnUse">
<stop stop-color="#CAFF33"/>
<stop offset="0.467671" stop-color="#CAFF33" stop-opacity="0"/>
</linearGradient>
<linearGradient id="paint1_linear_11_86913" x1="37.3335" y1="-128.5" x2="37.3335" y2="141" gradientUnits="userSpaceOnUse">
<stop stop-color="#CAFF33"/>
<stop offset="0.716291" stop-color="#CAFF33" stop-opacity="0"/>
</linearGradient>
</defs>
</svg>
